<svg aria-hidden="true" style="position:absolute;width:0;height:0" xmlns="http://www.w3.org/2000/svg" overflow="hidden"><defs>
    <symbol id="icon-close" viewBox="0 0 32 32"><path d="M1.646 32a1.646 1.646 0 01-1.163-2.811L29.19.482a1.647 1.647 0 112.33 2.328L2.811 31.517c-.298.298-.71.482-1.165.483z"/><path d="M30.355 32c-.422 0-.844-.16-1.165-.483L.483 2.81A1.646 1.646 0 112.81.481l28.707 28.708A1.645 1.645 0 0130.355 32z"/></symbol>
    <symbol id="icon-ellipse_2" viewBox="0 0 32 32"><path d="M32 16c0 8.837-7.163 16-16 16S0 24.837 0 16 7.163 0 16 0s16 7.163 16 16z"/></symbol>
    <symbol id="icon-ellipse_4" viewBox="0 0 32 32"><path d="M32 16c0 8.837-7.163 16-16 16S0 24.837 0 16 7.163 0 16 0s16 7.163 16 16z"/></symbol>
    <symbol id="icon-ellipse_5" viewBox="0 0 32 32"><path d="M32 16c0 8.837-7.163 16-16 16S0 24.837 0 16 7.163 0 16 0s16 7.163 16 16z"/></symbol>
    <symbol id="icon-ellipse_7" viewBox="0 0 32 32"><path d="M32 16c0 8.837-7.163 16-16 16S0 24.837 0 16 7.163 0 16 0s16 7.163 16 16z"/></symbol>
    <symbol id="icon-ellipse_8" viewBox="0 0 32 32"><path d="M32 16c0 8.837-7.163 16-16 16S0 24.837 0 16 7.163 0 16 0s16 7.163 16 16z"/></symbol>
    <symbol id="icon-ellipse_9" viewBox="0 0 32 32"><path d="M32 16c0 8.837-7.163 16-16 16S0 24.837 0 16 7.163 0 16 0s16 7.163 16 16z"/></symbol>
    <symbol id="icon-ellipse_10" viewBox="0 0 64 32"><path d="M32 16c0 8.837-7.163 16-16 16S0 24.837 0 16 7.163 0 16 0s16 7.163 16 16z"/></symbol>
    <symbol id="icon-ellipse_11" viewBox="0 0 64 32"><path d="M64 32c0-8.836-3.582-16.836-9.373-22.627C48.837 3.582 40.837 0 32.001 0h-.002c-17.673 0-32 14.327-32 32h64z"/></symbol>
    <symbol id="icon-frame_1" viewBox="0 0 63 32"><path d="M64 32c0-8.836-3.582-16.836-9.373-22.627C48.837 3.582 40.837 0 32.001 0h-.002c-17.673 0-32 14.327-32 32h64z"/></symbol>
    <symbol id="icon-line_1" viewBox="0 0 0 32"><path stroke-width=".043" d="M.022 0v32"/></symbol>
    <symbol id="icon-line_2" viewBox="0 0 0 32"><path stroke-width=".025" d="M.013 0v32"/></symbol>
    <symbol id="icon-line_2-1" viewBox="0 0 0 32"><path stroke-width=".036" d="M.018 0v32"/></symbol>
    <symbol id="icon-line_3" viewBox="0 0 0 32"><path stroke-width=".024" d="M.012 0v32"/></symbol>
    <symbol id="icon-logo" viewBox="0 0 38 32"><path fill="var(--color2, #000)" opacity=".03" d="M.08 32c4.986 0 9.924-.828 14.531-2.436s8.793-3.965 12.318-6.937c3.526-2.971 6.323-6.499 8.231-10.382s2.89-8.043 2.89-12.246H.08v32z"/><path fill="var(--color3, #fff)" d="M13.122 14.532c-.203-.565-.622-.847-1.255-.847h-.2v3.484h.2c.489 0 .85-.193 1.084-.579.196-.329.295-.748.295-1.257 0-.303-.042-.57-.124-.801zm-3.429.042c.203.565.622.847 1.254.847h.2v-3.485h-.2c-.489 0-.851.193-1.084.579-.196.329-.294.748-.294 1.257 0 .302.041.569.123.801zM6.368 6.373h2.658v.923H7.322v.461h1.416v.876H7.322V9.1h1.704v.923H6.368V6.374zm3.995-.005h3.44l-1.72 3.728-1.72-3.728zm1.72 3.267l1.421-3.073h-2.837l1.416 3.073zm3.094-3.262h2.658v.923h-1.704v.461h1.416v.876h-1.416V9.1h1.704v.923h-2.658V6.374zm4.294 3.644V6.369h.205l2.548 2.48v-2.48h.194v3.649l-2.947-.001zm5.731.005V7.295h-1.379v-.923h2.947v.923h-1.379v2.727h-.189zM7.936 12.665c.231 0 .414.035.551.105a.916.916 0 01.514.823v.017-.001.005a.877.877 0 01-.138.473l.002-.004a.968.968 0 01-.367.341l-.005.003c.194.07.356.189.475.344l.002.002a.87.87 0 01.194.55V15.336a.948.948 0 01-.141.498l.002-.004c-.091.15-.216.272-.365.357l-.005.003a.943.943 0 01-.25.093l-.007.001a1.81 1.81 0 01-.378.031H6.405v-3.649h1.531zm6.148 3.384c-.274-.239-.41-.599-.406-1.078h.855c-.004.199.056.351.178.456s.294.157.514.157c.182 0 .325-.03.43-.089s.157-.15.157-.273c0-.101-.053-.175-.16-.22a1.443 1.443 0 00-.308-.096l-.009-.002-.194-.035a4.188 4.188 0 01-.726-.202l.029.01a1.228 1.228 0 01-.492-.339l-.001-.001c-.133-.154-.199-.357-.199-.608s.066-.466.199-.642c.133-.177.31-.309.532-.396a1.96 1.96 0 01.726-.131c.318 0 .594.059.826.178s.415.299.548.54a.903.903 0 01.121.333c.014.103.021.208.021.312h-.855c0-.189-.051-.328-.152-.417s-.259-.134-.472-.134c-.171 0-.304.03-.399.089s-.142.14-.142.241c0 .112.063.194.189.246.134.055.294.104.459.138l.018.003c.315.063.56.123.737.181.184.062.338.168.458.305l.001.001c.129.147.194.353.194.619 0 .252-.07.468-.21.65s-.324.321-.553.417a1.873 1.873 0 01-.726.144h-.016.001c-.507-.001-.897-.121-1.172-.36zm4.826.265v-2.727h-1.379v-.923h2.947v.923h-1.379v2.727h-.189zm2.559-3.649h2.658v.923h-1.704v.462h1.416v.876h-1.416v.466h1.704v.923h-2.658v-3.649zm6.596 3.649H25.26v-3.649h1.421c.304 0 .552.054.745.162.185.102.334.248.437.425l.003.005c.099.169.157.373.157.59v.014-.001.011c0 .273-.095.525-.254.723l.002-.002a1.185 1.185 0 01-.626.425l-.008.002.928 1.295zm-2.612-3.33v1.882h1.348l-1.348-1.882zm0 3.136h2.244l-.765-1.064-.163.005h-1.316v1.059zm.137-3.262l1.426 1.993c.236-.048.438-.174.581-.35l.001-.002a.97.97 0 00.231-.629v-.011V13.849c0-.189-.053-.367-.144-.518l.003.004a.932.932 0 00-.393-.359l-.006-.002c-.154-.077-.355-.115-.603-.115H25.59z"/></symbol>
    <symbol id="icon-polygon_1" viewBox="0 0 52 32"><path fill="var(--color4, #939393)" d="M26 0l25.98 30H.02L26 0z"/></symbol>
    <symbol id="icon-polygon_2" viewBox="0 0 52 32"><path fill="var(--color4, #939393)" d="M26 32L.02 2h51.96L26 32z"/></symbol>
    <symbol id="icon-rectangle" viewBox="0 0 34 32"><path fill="var(--color4, #939393)" d="M26 32L.02 2h51.96L26 32z"/></symbol>
    <symbol id="icon-rectangle_mini" viewBox="0 0 32 32"><path fill="none" stroke="var(--color5, #dc56c5)" stroke-width="1.067" d="M.533 10.667C.533 5.071 5.07.534 10.666.534v0h20.8v20.8c0 5.596-4.537 10.133-10.133 10.133v0H.533v-20.8z"/></symbol>
    <symbol id="icon-ticket1" viewBox="0 0 44 32"><path d="M4.91 1.269H0V30.73h4.91V1.269zm12.35 0h-4.911V30.73h4.911V1.269zm7.439 0h-4.91V30.73h4.91V1.269zm19.491 0h-7.291V30.73h7.291V1.269zm-34.371 0h-2.38V30.73h2.38V1.269zm19.641 0h-2.38V30.73h2.38V1.269zm4.91 0h-2.38V30.73h2.382V1.269z"/></symbol>
    <symbol id="icon-ticket2" viewBox="0 0 44 32"><path d="M4.91 1.269H0V30.73h4.91V1.269zm12.35 0h-4.911V30.73h4.911V1.269zm7.439 0h-4.91V30.73h4.91V1.269zm19.491 0h-7.291V30.73h7.291V1.269zm-34.371 0h-2.38V30.73h2.38V1.269zm19.641 0h-2.38V30.73h2.38V1.269zm4.91 0h-2.38V30.73h2.382V1.269z"/></symbol>
    <symbol id="icon-vector" viewBox="0 0 32 32"><path fill="var(--color4, #939393)" d="M4.024 4.024A13.604 13.604 0 0113.701 0h.04-.002a13.65 13.65 0 019.715 4.024 13.608 13.608 0 014.027 9.68v.037-.002.035c0 3.453-1.284 6.607-3.4 9.01l.013-.015 7.632 7.629a.938.938 0 11-1.328 1.328l-7.629-7.629a13.571 13.571 0 01-8.988 3.381h-.043.002-.035a13.607 13.607 0 01-9.677-4.023l-.001-.001A13.608 13.608 0 010 13.774v-.037.002a13.65 13.65 0 014.024-9.715zm1.328 18.104c2.148 2.143 5.113 3.468 8.387 3.468s6.239-1.325 8.387-3.468c2.144-2.148 3.469-5.113 3.469-8.388s-1.326-6.24-3.47-8.388a11.788 11.788 0 00-8.367-3.469h-.018.001-.021A11.788 11.788 0 005.355 5.35c-2.145 2.148-3.471 5.114-3.471 8.389s1.326 6.241 3.471 8.389z"/></symbol>
    <symbol id="icon-vector-1" viewBox="0 0 22 32"><path fill="var(--color3, #fff)" d="M11.2 0C5.024 0 0 4.992 0 11.123 0 18.832 11.21 32 11.21 32S22.4 18.451 22.4 11.123C22.4 4.989 17.376 0 11.2 0zm3.379 14.381c-.931.925-2.157 1.386-3.379 1.386s-2.448-.461-3.379-1.386c-.863-.857-1.398-2.045-1.398-3.357s.534-2.5 1.397-3.357c.902-.896 2.102-1.389 3.379-1.389s2.477.493 3.379 1.389a4.733 4.733 0 010 6.714z"/></symbol>
</defs>
</svg>